<?xml version="1.0" standalone="no"?><!DOCTYPE svg PUBLIC "-//W3C//DTD SVG 1.1//EN" "http://www.w3.org/Graphics/SVG/1.1/DTD/svg11.dtd"><svg t="1695310795566" class="icon" viewBox="0 0 1024 1024" version="1.1" xmlns="http://www.w3.org/2000/svg" p-id="8368" width="128" height="128" xmlns:xlink="http://www.w3.org/1999/xlink"><path d="M567.396721 47.003279c-26.859016-20.144262-63.790164-18.465574-88.970491 5.036065-23.501639 23.501639-25.180328 62.111475-5.036066 88.970492-6.714754 21.822951-1.678689 47.003279 16.786885 65.468853 26.859016 26.859016 68.82623 26.859016 95.685246 0 8.393443-8.393443 13.429508-18.465574 16.786885-30.216394 11.75082-3.357377 21.822951-8.393443 30.216394-16.786885 26.859016-26.859016 26.859016-68.82623 0-95.685246-18.465574-16.786885-43.645902-23.501639-65.468853-16.786885z" fill="#FFA726" p-id="8369"></path><path d="M815.842623 141.009836c20.144262-26.859016 18.465574-63.790164-5.036066-88.970492-23.501639-23.501639-62.111475-25.180328-88.970491-5.036065-21.822951-6.714754-47.003279-1.678689-65.468853 16.786885-26.859016 26.859016-26.859016 68.82623 0 95.685246 8.393443 8.393443 18.465574 13.429508 30.216394 16.786885 3.357377 11.75082 8.393443 21.822951 16.786885 30.216394 26.859016 26.859016 68.82623 26.859016 95.685246 0 16.786885-18.465574 21.822951-43.645902 16.786885-65.468853z" fill="#FFA726" p-id="8370"></path><path d="M710.085246 67.147541c-3.357377-33.57377-31.895082-58.754098-67.147541-58.754098-33.57377 0-62.111475 25.180328-67.147541 58.754098-20.144262 11.75082-33.57377 33.57377-33.573771 58.754098 0 36.931148 30.216393 67.147541 67.147541 67.147541 11.75082 0 23.501639-3.357377 33.573771-10.072131 10.072131 5.036066 21.822951 10.072131 33.57377 10.072131 36.931148 0 67.147541-30.216393 67.147541-67.147541 1.678689-25.180328-13.429508-47.003279-33.57377-58.754098z" fill="#FFA726" p-id="8371"></path><path d="M911.527869 151.081967c-3.357377-33.57377-31.895082-58.754098-67.147541-58.754098-33.57377 0-62.111475 25.180328-67.147541 58.754098-20.144262 11.75082-33.57377 33.57377-33.573771 58.754099 0 36.931148 30.216393 67.147541 67.147541 67.147541 11.75082 0 23.501639-3.357377 33.573771-10.072132 10.072131 5.036066 21.822951 10.072131 33.57377 10.072132 36.931148 0 67.147541-30.216393 67.147541-67.147541 1.678689-25.180328-13.429508-47.003279-33.57377-58.754099z" fill="#FFA726" p-id="8372"></path><path d="M233.337705 461.639344c-13.429508 0-25.180328-11.75082-25.180328-25.180328V246.767213L99.042623 152.760656c-10.072131-8.393443-11.75082-23.501639-3.357377-35.252459 8.393443-10.072131 25.180328-11.75082 35.252459-3.357377l117.508197 100.721311c5.036066 5.036066 8.393443 11.75082 8.393442 18.465574v201.442623c1.678689 15.108197-10.072131 26.859016-23.501639 26.859016z" fill="#CFD8DC" p-id="8373"></path><path d="M508.642623 151.081967c-3.357377-33.57377-31.895082-58.754098-67.147541-58.754098-33.57377 0-62.111475 25.180328-67.147541 58.754098-20.144262 11.75082-33.57377 33.57377-33.573771 58.754099 0 36.931148 30.216393 67.147541 67.147541 67.147541 11.75082 0 23.501639-3.357377 33.573771-10.072132 10.072131 5.036066 21.822951 10.072131 33.57377 10.072132 36.931148 0 67.147541-30.216393 67.147541-67.147541 1.678689-25.180328-13.429508-47.003279-33.57377-58.754099z" fill="#FFA726" p-id="8374"></path><path d="M577.468852 266.911475c3.357377 33.57377 31.895082 58.754098 67.147541 58.754099 33.57377 0 62.111475-25.180328 67.147541-58.754099 20.144262-11.75082 33.57377-33.57377 33.573771-58.754098 0-36.931148-30.216393-67.147541-67.147541-67.147541-11.75082 0-23.501639 3.357377-33.573771 10.072131-10.072131-5.036066-21.822951-10.072131-33.57377-10.072131-36.931148 0-67.147541 30.216393-67.147541 67.147541 0 25.180328 13.429508 47.003279 33.57377 58.754098z" fill="#FFA726" p-id="8375"></path><path d="M728.55082 209.836066c-47.003279 0-83.934426 36.931148-83.934427 83.934426 0-47.003279-36.931148-83.934426-83.934426-83.934426s-83.934426 36.931148-83.934426 83.934426c0-47.003279-36.931148-83.934426-83.934426-83.934426s-83.934426 36.931148-83.934426 83.934426l48.681967 674.832787c1.678689 26.859016 23.501639 47.003279 50.360655 47.003278h307.2c26.859016 0 48.681967-20.144262 50.360656-47.003278l48.681967-674.832787c-1.678689-47.003279-40.288525-83.934426-85.613114-83.934426z" fill="#455A64" p-id="8376"></path><path d="M896.419672 209.836066c-47.003279 0-83.934426 36.931148-83.934426 83.934426 0-47.003279-36.931148-83.934426-83.934426-83.934426s-83.934426 36.931148-83.934427 83.934426c0-47.003279-36.931148-83.934426-83.934426-83.934426s-83.934426 36.931148-83.934426 83.934426l48.681967 674.832787c1.678689 26.859016 23.501639 47.003279 50.360656 47.003278h307.2c26.859016 0 48.681967-20.144262 50.360656-47.003278l48.681967-674.832787c-1.678689-47.003279-40.288525-83.934426-85.613115-83.934426z" fill="#CFD8DC" p-id="8377"></path><path d="M728.55082 209.836066c-47.003279 0-83.934426 36.931148-83.934427 83.934426l16.786886 721.836065h134.295082l16.786885-721.836065c0-47.003279-38.609836-83.934426-83.934426-83.934426z" fill="#546E7A" p-id="8378"></path><path d="M728.55082 587.540984m-125.90164 0a125.901639 125.901639 0 1 0 251.803279 0 125.901639 125.901639 0 1 0-251.803279 0Z" fill="#FFA726" p-id="8379"></path><path d="M387.777049 444.852459H94.006557c-30.216393 0-52.039344 25.180328-50.360655 55.396721l41.967213 470.032787c1.678689 25.180328 23.501639 45.32459 50.360655 45.32459h209.836066c26.859016 0 48.681967-20.144262 50.360656-45.32459l41.967213-470.032787c1.678689-30.216393-21.822951-55.396721-50.360656-55.396721z" fill="#EC407A" p-id="8380"></path><path d="M417.993443 637.901639c-63.790164 0-95.685246 36.931148-119.186886 65.468853-21.822951 23.501639-31.895082 35.252459-57.075409 35.252459s-35.252459-11.75082-57.07541-35.252459C161.154098 674.832787 127.580328 637.901639 65.468852 637.901639h-8.393442l6.714754 83.934427c23.501639 0 35.252459 11.75082 57.07541 35.252459 23.501639 26.859016 57.07541 65.468852 119.186885 65.468852s95.685246-36.931148 119.186885-65.468852c21.822951-23.501639 31.895082-35.252459 57.07541-35.252459l6.714754-82.255738c0-1.678689-3.357377-1.678689-5.036065-1.678689z" fill="#CFD8DC" p-id="8381"></path><path d="M577.468852 545.57377h302.163935v83.934427h-302.163935z" fill="#CFD8DC" p-id="8382"></path></svg>